<svg width="17" height="21" viewBox="0 0 17 21" fill="none" xmlns="http://www.w3.org/2000/svg">
<path d="M5.83606 11.4379V6.43787L8.83606 4.43787L11.8361 6.43787V11.4379H9.83606V8.43787H7.83606V11.4379H5.83606ZM8.83606 17.7879C10.8694 15.9212 12.3777 14.2254 13.3611 12.7004C14.3444 11.1754 14.8361 9.8212 14.8361 8.63787C14.8361 6.8212 14.2569 5.3337 13.0986 4.17537C11.9402 3.01703 10.5194 2.43787 8.83606 2.43787C7.15273 2.43787 5.73189 3.01703 4.57356 4.17537C3.41523 5.3337 2.83606 6.8212 2.83606 8.63787C2.83606 9.8212 3.32773 11.1754 4.31106 12.7004C5.29439 14.2254 6.80273 15.9212 8.83606 17.7879ZM8.83606 20.4379C6.15273 18.1545 4.14856 16.0337 2.82356 14.0754C1.49856 12.117 0.83606 10.3045 0.83606 8.63787C0.83606 6.13787 1.64023 4.1462 3.24856 2.66287C4.85689 1.17953 6.71939 0.437866 8.83606 0.437866C10.9527 0.437866 12.8152 1.17953 14.4236 2.66287C16.0319 4.1462 16.8361 6.13787 16.8361 8.63787C16.8361 10.3045 16.1736 12.117 14.8486 14.0754C13.5236 16.0337 11.5194 18.1545 8.83606 20.4379Z" fill="#FF2625"/>
</svg>
